<?xml version="1.0" encoding="UTF-8" standalone="no"?>
<!DOCTYPE svg PUBLIC "-//W3C//DTD SVG 1.1//EN" "http://www.w3.org/Graphics/SVG/1.1/DTD/svg11.dtd">
<svg width="100%" height="100%" viewBox="0 0 2481 2481" version="1.1" xmlns="http://www.w3.org/2000/svg" xmlns:xlink="http://www.w3.org/1999/xlink" xml:space="preserve" xmlns:serif="http://www.serif.com/" style="fill-rule:evenodd;clip-rule:evenodd;stroke-linecap:round;stroke-linejoin:round;stroke-miterlimit:1.5;">
    <g id="Ebene1">
        <g id="Kreis" transform="matrix(0.974482,0,0,0.969275,67.5289,80.3444)">
            <ellipse cx="1201.28" cy="1203.28" rx="1236.72" ry="1238.72" style="fill:none;stroke:black;stroke-width:21.44px;"/>
        </g>
        <path d="M1240.16,46.002L1238.16,2447.32" style="fill:none;stroke:black;stroke-width:20.83px;"/>
        <path d="M33,1240.16C33,1240.16 2452.02,1245.01 2443.32,1246.66" style="fill:none;stroke:black;stroke-width:20.83px;"/>
        <path d="M2443.32,1246.66L1725,2340L1238.16,1240.16" style="fill:none;stroke:black;stroke-width:20.83px;"/>
        <g transform="matrix(-1,0,0,1,2478.31,0)">
            <path d="M2443.32,1246.66L1738,2340L1238.16,1240.16" style="fill:none;stroke:black;stroke-width:20.83px;"/>
        </g>
        <g transform="matrix(0.842929,0,0,0.994546,119.483,1141.24)">
            <path d="M1329.5,106C1329.67,106 1329.5,759.313 1329.5,759.313L1329.5,1302.02" style="fill:none;stroke:black;stroke-width:22.6px;"/>
        </g>
        <g transform="matrix(0.842929,0,0,0.994546,119.483,1141.24)">
            <path d="M1329.5,1302.02C920.646,1309.19 455.168,1032.95 455.168,704.011C455.168,375.07 835.812,106 1329.5,106" style="fill:none;stroke:black;stroke-width:22.6px;"/>
        </g>
        <g transform="matrix(0.801006,0,0,0.994546,175.284,-50.7636)">
            <ellipse cx="1329.5" cy="702" rx="894.5" ry="596" style="fill:none;stroke:black;stroke-width:23.07px;"/>
        </g>
    </g>
</svg>
