<?xml version="1.0" encoding="UTF-8" standalone="no"?>
<!DOCTYPE svg PUBLIC "-//W3C//DTD SVG 20010904//EN"
              "http://www.w3.org/TR/2001/REC-SVG-20010904/DTD/svg10.dtd">

<svg xmlns="http://www.w3.org/2000/svg"
     width="2in" height="2in"
     viewBox="0 0 600 600">
  <path id="B-Bot"
        fill="none" stroke="black" stroke-width="3"
        d="M 278.22,302.16
           C 304.70,298.94 297.36,307.26 297.36,307.26
             297.36,307.26 300.00,344.89 300.00,368.65
             300.00,426.08 299.57,415.18 300.00,451.83
             300.24,472.17 300.66,474.27 300.00,490.11
             300.66,506.61 300.00,512.56 300.00,525.76
             300.00,549.52 300.00,547.54 299.34,566.68
             299.34,582.53 305.28,599.03 290.10,598.36
             211.08,597.44 104.99,543.16 103.95,453.81
             103.71,432.97 107.55,412.89 117.61,394.40
             139.28,354.55 181.89,325.56 224.75,312.65
             244.11,306.82 258.58,305.01 278.22,302.16 Z
           M 276.24,3.79
           C 334.17,-3.26 406.45,15.70 450.48,54.44
             477.33,78.07 497.60,110.87 498.03,147.51
             498.26,167.86 495.14,184.43 486.37,202.96
             479.44,217.61 466.19,234.14 454.29,245.09
             436.99,261.00 418.58,272.12 397.04,281.33
             361.50,296.52 326.32,300.44 288.12,299.99
             209.10,299.07 103.01,244.79 101.97,155.44
             101.73,134.60 105.57,114.52 115.63,96.03
             137.30,56.18 179.91,27.19 222.77,14.28
             242.13,8.45 256.60,6.64 276.24,3.79 Z
           M 3.61,299.34
           C 3.61,299.34 150.16,556.12 150.16,556.12
             150.16,556.12 300.00,300.00 300.00,300.00
             300.00,300.00 449.18,555.46 449.18,555.46
             449.18,555.46 595.73,300.66 595.73,300.66M 3.61,299.34
           C 3.61,299.34 597.05,301.32 597.05,301.32M 300.00,597.05
           C 300.00,597.05 300.00,2.95 300.00,2.95M 276.24,3.37
           C 276.24,3.37 307.92,3.37 307.92,3.37
             343.64,3.01 392.73,14.44 424.76,30.19
             456.48,45.79 486.86,64.64 511.72,90.16
             591.81,172.39 618.66,295.13 579.12,402.98
             564.86,441.88 545.45,470.77 518.67,501.99
             496.36,528.01 463.26,550.56 432.68,565.85
             385.14,589.62 340.90,597.66 288.12,597.04
             268.30,596.81 242.09,591.75 222.77,586.90
             50.26,543.58 -42.71,349.77 24.76,187.12
             56.89,109.65 118.11,49.81 197.02,20.88
             224.27,10.89 247.98,7.82 276.24,3.37 Z" />
</svg>
