<?xml version="1.0" encoding="UTF-8" standalone="no"?>
<!DOCTYPE svg PUBLIC "-//W3C//DTD SVG 20010904//EN"
              "http://www.w3.org/TR/2001/REC-SVG-20010904/DTD/svg10.dtd">

<svg xmlns="http://www.w3.org/2000/svg"
     width="2in" height="2in"
     viewBox="0 0 600 600">
  <path id="B-Bot"
        fill="none" stroke="white" stroke-width="5"
        d="M 289.00,301.09
           C 302.37,299.46 298.67,303.67 298.67,303.67
             298.67,303.67 300.00,322.67 300.00,334.67
             300.00,363.67 299.78,358.16 300.00,376.67
             300.12,386.94 300.33,388.00 300.00,396.00
             300.33,404.33 300.00,407.33 300.00,414.00
             300.00,426.00 300.00,425.00 299.67,434.67
             299.67,442.67 302.67,451.00 295.00,450.66
             255.10,450.20 201.53,422.79 201.00,377.67
             200.88,367.14 202.82,357.00 207.90,347.67
             218.84,327.54 240.36,312.91 262.00,306.39
             271.78,303.44 279.09,302.53 289.00,301.09 Z
           M 288.00,150.42
           C 317.25,146.86 353.75,156.44 375.99,176.00
             389.55,187.93 399.78,204.50 400.00,223.00
             400.12,233.27 398.54,241.64 394.11,251.00
             390.61,258.40 383.92,266.74 377.91,272.27
             369.18,280.31 359.88,285.92 349.00,290.57
             331.06,298.24 313.29,300.22 294.00,300.00
             254.10,299.53 200.53,272.12 200.00,227.00
             199.88,216.48 201.82,206.34 206.90,197.00
             217.84,176.88 239.36,162.24 261.00,155.72
             270.78,152.78 278.09,151.86 288.00,150.42 Z
           M 150.33,299.67
           C 150.33,299.67 224.33,429.33 224.33,429.33
             224.33,429.33 300.00,300.00 300.00,300.00
             300.00,300.00 375.33,429.00 375.33,429.00
             375.33,429.00 449.33,300.33 449.33,300.33M 150.33,299.67
           C 150.33,299.67 450.00,300.67 450.00,300.67M 300.00,450.00
           C 300.00,450.00 300.00,150.00 300.00,150.00M 288.00,150.21
           C 288.00,150.21 304.00,150.21 304.00,150.21
             322.04,150.03 346.83,155.80 363.00,163.76
             379.02,171.63 394.36,181.15 406.91,194.04
             447.36,235.56 460.91,297.54 440.95,352.00
             433.75,371.64 423.94,386.24 410.42,402.00
             399.15,415.14 382.44,426.53 367.00,434.25
             342.99,446.25 320.65,450.31 294.00,450.00
             283.99,449.88 270.76,447.32 261.00,444.87
             173.89,423.00 126.94,325.13 161.01,243.00
             177.24,203.88 208.15,173.66 248.00,159.05
             261.76,154.01 273.73,152.46 288.00,150.21 Z" />
</svg>
